<?xml version="1.0" encoding="UTF-8" standalone="no"?>
<svg
   xmlns:dc="http://purl.org/dc/elements/1.1/"
   xmlns:cc="http://creativecommons.org/ns#"
   xmlns:rdf="http://www.w3.org/1999/02/22-rdf-syntax-ns#"
   xmlns:svg="http://www.w3.org/2000/svg"
   xmlns="http://www.w3.org/2000/svg"
   id="svg1841"
   version="1.1"
   viewBox="0 0 85.284409 15.4385"
   height="15.4385mm"
   width="85.284409mm">
  <defs
     id="defs1835" />
  <metadata
     id="metadata1838">
    <rdf:RDF>
      <cc:Work
         rdf:about="">
        <dc:format>image/svg+xml</dc:format>
        <dc:type
           rdf:resource="http://purl.org/dc/dcmitype/StillImage" />
        <dc:title></dc:title>
      </cc:Work>
    </rdf:RDF>
  </metadata>
  <g
     transform="translate(-42.02446,-48.13194)"
     id="layer1">
    <g
       transform="translate(565.00165,233.67134)"
       id="g3693">
      <path
         style="fill:#abcf2b;fill-opacity:1;fill-rule:evenodd;stroke:none;stroke-width:0.35277775"
         d="m -511.02094,-174.19643 c 0.0565,0.0758 0.10887,0.15572 0.15572,0.2384 0.008,0.007 0.0138,0.0152 0.0165,0.0262 l -0.003,-0.006 c 0.21222,0.37482 0.33486,0.80753 0.33486,1.26917 0,1.418 -1.14928,2.56729 -2.56728,2.56729 -1.418,0 -2.56591,-1.14929 -2.56591,-2.56729 0,-0.59945 0.20533,-1.15066 0.54846,-1.5875 l 0.004,-0.004 c 0.0455,-0.0579 0.0937,-0.113 0.14332,-0.16674 3.30315,-3.90398 0.0372,-6.38996 -0.25908,-7.11205 -0.27698,-0.41066 -0.43683,-0.90262 -0.43683,-1.43454 0,-1.41662 1.1479,-2.56591 2.5659,-2.56591 1.418,0 2.56729,1.14929 2.56729,2.56591 0,0.36656 -0.0772,0.71382 -0.21498,1.02939 l -0.0124,0.0275 -0.004,0.008 c -2.01469,4.48689 -2.40881,4.42488 -0.27285,7.7115 z m 6.62423,-0.78962 c 0.86403,0.41341 1.4621,1.29536 1.4621,2.31786 0,1.418 -1.14929,2.56729 -2.56729,2.56729 -1.418,0 -2.56728,-1.14929 -2.56728,-2.56729 0,-0.14194 0.0124,-0.28112 0.0345,-0.41617 v -0.001 c 0.2825,-1.86999 -0.41065,-1.72254 -1.78456,-2.36884 h 10e-4 c -0.90124,-0.39826 -1.52824,-1.29949 -1.52824,-2.3468 0,-1.418 1.14928,-2.56729 2.56591,-2.56729 1.418,0 2.56728,1.14929 2.56728,2.56729 0,0.0799 -0.004,0.15847 -0.011,0.23702 -0.20808,2.64997 0.55397,1.87689 1.82728,2.57831 z m -16.01418,-0.24942 c 0.0289,0 0.0593,0.001 0.0882,0.003 0.49747,-0.10336 0.84336,-0.3955 0.73036,-1.83141 l 10e-4,0.001 c -0.0703,-0.23427 -0.10886,-0.48232 -0.10886,-0.73863 0,-1.418 1.14928,-2.56728 2.56728,-2.56728 1.41663,0 2.56591,1.14928 2.56591,2.56728 0,1.06385 -0.6463,1.97611 -1.56821,2.36472 -1.3739,0.64629 -2.02847,0.46853 -1.74459,2.33852 v 0.001 c 0.0234,0.13918 0.0358,0.28249 0.0358,0.42856 0,1.418 -1.14928,2.56729 -2.56728,2.56729 -1.418,0 -2.56591,-1.14929 -2.56591,-2.56729 0,-1.418 1.14791,-2.56728 2.56591,-2.56728"
         id="path2966" />
      <path
         style="fill:#192e66;fill-opacity:1;fill-rule:evenodd;stroke:none;stroke-width:0.35277775"
         d="m -437.69278,-176.70171 c 0,-2.39089 -1.95543,-4.34633 -4.367,-4.34633 -1.30362,0 -2.47633,0.565 -3.28111,1.49931 -0.80339,-0.93431 -1.9761,-1.49931 -3.27973,-1.49931 -2.41156,0 -4.367,1.95544 -4.367,4.34633 v 5.47495 c 0,0.60771 0.4768,1.08589 1.08589,1.08589 0.58705,0 1.06523,-0.47818 1.06523,-1.08589 v -5.47495 c 0,-1.2168 0.99907,-2.19521 2.21588,-2.19521 1.21681,0 2.19384,0.97841 2.19384,2.19521 v 5.47495 c 0,0.60771 0.50023,1.08589 1.08589,1.08589 0.58705,0 1.06522,-0.47818 1.06522,-1.08589 v -5.47495 c 0,-1.2168 0.99908,-2.19521 2.21589,-2.19521 1.21681,0 2.21589,0.97841 2.21589,2.19521 0,0.0427 0,0.0648 0,0.0854 0,0.0441 0,0.0661 0,0.10887 v 5.28064 c 0,0.60771 0.47818,1.08589 1.06522,1.08589 0.58567,0 1.08589,-0.47818 1.08589,-1.08589 v -5.28064 c 0,-0.0427 0,-0.0648 -0.022,-0.10887 0.022,-0.0207 0.022,-0.0427 0.022,-0.0854"
         id="path3042" />
      <path
         style="fill:#abcf2b;fill-opacity:1;fill-rule:evenodd;stroke:none;stroke-width:0.35277775"
         d="m -455.39919,-178.85283 c 0.2825,0 0.565,-0.10886 0.76068,-0.30041 0.19568,-0.19568 0.30317,-0.47818 0.30317,-0.76067 0,-0.2825 -0.10887,-0.565 -0.30317,-0.76068 -0.19568,-0.19568 -0.47818,-0.3266 -0.76068,-0.3266 -0.2825,0 -0.56499,0.13092 -0.76068,0.3266 -0.19567,0.19568 -0.32659,0.47818 -0.32659,0.76068 0,0.28249 0.13092,0.56499 0.32659,0.76067 0.19431,0.19155 0.47818,0.30041 0.76068,0.30041"
         id="path3044" />
      <path
         style="fill:#192e66;fill-opacity:1;fill-rule:evenodd;stroke:none;stroke-width:0.35277775"
         d="m -455.39919,-170.18496 c 0.58567,0 1.06385,-0.47818 1.06385,-1.0859 v -5.42534 c 0,-0.58704 -0.47818,-1.06522 -1.06385,-1.06522 -0.60909,0 -1.08727,0.47818 -1.08727,1.06522 v 5.42534 c 0,0.60772 0.47818,1.0859 1.08727,1.0859"
         id="path3046" />
      <path
         style="fill:#192e66;fill-opacity:1;fill-rule:evenodd;stroke:none;stroke-width:0.35277775"
         d="m -458.87598,-181.07009 c -2.99861,0 -5.4529,2.43086 -5.4529,5.44325 v 4.35598 c 0,0.58704 0.47818,1.0859 1.0859,1.0859 0.58704,0 1.06522,-0.49886 1.06522,-1.0859 v -4.35598 c 0,-1.81763 1.47726,-3.29213 3.30178,-3.29213 0.6091,0 1.0859,-0.49885 1.0859,-1.08589 0,-0.58705 -0.4768,-1.06523 -1.0859,-1.06523"
         id="path3048" />
      <path
         style="fill:#abcf2b;fill-opacity:1;fill-rule:evenodd;stroke:none;stroke-width:0.35277775"
         d="m -466.63158,-170.82575 c 0.2825,0 0.565,-0.10887 0.76068,-0.30041 0.19568,-0.19569 0.30317,-0.47818 0.30317,-0.76068 0,-0.2825 -0.10887,-0.565 -0.30317,-0.76068 -0.19568,-0.19568 -0.47818,-0.32522 -0.76068,-0.32522 -0.28249,0 -0.56499,0.12954 -0.76067,0.32522 -0.19569,0.19568 -0.3266,0.47818 -0.3266,0.76068 0,0.2825 0.12954,0.56499 0.3266,0.76068 0.1943,0.19154 0.47818,0.30041 0.76067,0.30041"
         id="path3050" />
      <path
         style="fill:#192e66;fill-opacity:1;fill-rule:evenodd;stroke:none;stroke-width:0.35277775"
         d="m -466.63158,-174.55472 c 0.58567,0 1.06385,-0.47818 1.06385,-1.08727 v -4.36976 c 0,-0.58705 -0.47818,-1.06523 -1.06385,-1.06523 -0.60909,0 -1.08727,0.47818 -1.08727,1.06523 v 4.36976 c 0,0.60909 0.47818,1.08727 1.08727,1.08727"
         id="path3052" />
      <path
         style="fill:#192e66;fill-opacity:1;fill-rule:evenodd;stroke:none;stroke-width:0.35277775"
         d="m -469.04314,-176.70171 c 0,-2.39089 -1.95544,-4.34633 -4.367,-4.34633 -1.30363,0 -2.47772,0.565 -3.28112,1.49931 -0.80339,-0.93431 -1.97748,-1.49931 -3.2811,-1.49931 -2.41157,0 -4.36701,1.95544 -4.36701,4.34633 v 5.47495 c 0,0.60771 0.47818,1.08589 1.08728,1.08589 0.58566,0 1.06384,-0.47818 1.06384,-1.08589 v -5.47495 c 0,-1.2168 0.99908,-2.19521 2.21589,-2.19521 1.2168,0 2.19521,0.97841 2.19521,2.19521 v 5.47495 c 0,0.60771 0.49885,1.08589 1.08589,1.08589 0.58705,0 1.06523,-0.47818 1.06523,-1.08589 v -5.47495 c 0,-1.2168 0.99908,-2.19521 2.21589,-2.19521 1.2168,0 2.21588,0.97841 2.21588,2.19521 0,0.0427 0,0.0648 0,0.0854 0,0.0441 0,0.0661 0,0.10887 v 5.28064 c 0,0.60771 0.47818,1.08589 1.06384,1.08589 0.58705,0 1.08728,-0.47818 1.08728,-1.08589 v -5.28064 c 0,-0.0427 0,-0.0648 -0.022,-0.10887 0.022,-0.0207 0.022,-0.0427 0.022,-0.0854"
         id="path3054" />
      <path
         style="fill:#abcf2b;fill-opacity:1;fill-rule:evenodd;stroke:none;stroke-width:0.35277775"
         d="m -486.75093,-178.85283 c 0.28249,0 0.56637,-0.10886 0.76067,-0.30041 0.19706,-0.19568 0.30455,-0.47818 0.30455,-0.76067 0,-0.2825 -0.10886,-0.565 -0.30455,-0.76068 -0.19568,-0.19568 -0.47818,-0.3266 -0.76067,-0.3266 -0.2825,0 -0.565,0.13092 -0.76068,0.3266 -0.1943,0.19568 -0.32522,0.47818 -0.32522,0.76068 0,0.28249 0.12954,0.56499 0.32522,0.76067 0.19568,0.19155 0.47818,0.30041 0.76068,0.30041"
         id="path3056" />
      <path
         style="fill:#192e66;fill-opacity:1;fill-rule:evenodd;stroke:none;stroke-width:0.35277775"
         d="m -486.75093,-170.18496 c 0.58704,0 1.06522,-0.47818 1.06522,-1.0859 v -5.42534 c 0,-0.58704 -0.47818,-1.06522 -1.06522,-1.06522 -0.60772,0 -1.0859,0.47818 -1.0859,1.06522 v 5.42534 c 0,0.60772 0.47818,1.0859 1.0859,1.0859"
         id="path3058" />
      <path
         style="fill:#192e66;fill-opacity:1;fill-rule:evenodd;stroke:none;stroke-width:0.35277775"
         d="m -489.1625,-171.64017 -4.40972,-12.94943 c -0.13091,-0.41203 -0.50023,-0.78135 -1.02113,-0.78135 -0.54294,0 -0.93431,0.36932 -1.06522,0.78135 l -4.6495,12.94943 c -0.12954,0.5209 0.13091,1.15204 0.78272,1.43453 0.10887,0 0.10887,0 0.2384,0 0.52228,0 0.93431,-0.28249 1.04318,-0.78272 l 0.44235,-1.07349 2.50252,-6.89157 0.71658,-1.97473 0.0386,-0.10473 1.73633,5.26962 0.11989,0.3638 1.24712,3.8654 0.19293,0.5457 c 0.26045,0.65181 0.93431,0.89021 1.43316,0.78272 0.65181,-0.28249 0.89159,-0.91363 0.65181,-1.43453"
         id="path3060" />
      <path
         style="fill:#abcf2b;fill-opacity:1;fill-rule:evenodd;stroke:none;stroke-width:0.35277775"
         d="m -494.54374,-175.29198 c 0.71796,0 1.29949,0.58154 1.29949,1.2995 0,0.71795 -0.58153,1.29949 -1.29949,1.29949 -0.71796,0 -1.29949,-0.58154 -1.29949,-1.29949 0,-0.71796 0.58153,-1.2995 1.29949,-1.2995"
         id="path3062" />
    </g>
  </g>
</svg>
