<?xml version="1.0" encoding="UTF-8" standalone="no"?>
<svg
   xmlns:dc="http://purl.org/dc/elements/1.1/"
   xmlns:cc="http://creativecommons.org/ns#"
   xmlns:rdf="http://www.w3.org/1999/02/22-rdf-syntax-ns#"
   xmlns:svg="http://www.w3.org/2000/svg"
   xmlns="http://www.w3.org/2000/svg"
   id="svg1841"
   version="1.1"
   viewBox="0 0 20.042589 15.436638"
   height="15.436639mm"
   width="20.042589mm">
  <defs
     id="defs1835" />
  <metadata
     id="metadata1838">
    <rdf:RDF>
      <cc:Work
         rdf:about="">
        <dc:format>image/svg+xml</dc:format>
        <dc:type
           rdf:resource="http://purl.org/dc/dcmitype/StillImage" />
        <dc:title></dc:title>
      </cc:Work>
    </rdf:RDF>
  </metadata>
  <g
     transform="translate(-134.43471,-87.602121)"
     id="layer1">
    <path
       id="path3212-3"
       d="m 146.39097,98.944089 c 0.0565,0.0758 0.10887,0.15572 0.15572,0.2384 0.008,0.007 0.0138,0.0152 0.0165,0.0262 l -0.003,-0.005 c 0.21222,0.37482 0.33486,0.807521 0.33486,1.269171 0,1.418 -1.14928,2.5659 -2.56728,2.5659 -1.418,0 -2.56591,-1.1479 -2.56591,-2.5659 0,-0.599452 0.20533,-1.150661 0.54846,-1.587501 l 0.004,-0.004 c 0.0455,-0.0579 0.0937,-0.113 0.14332,-0.16675 3.30315,-3.903978 0.0372,-6.389958 -0.25908,-7.113428 -0.27698,-0.40928 -0.43683,-0.90123 -0.43683,-1.43316 0,-1.41662 1.1479,-2.5659 2.5659,-2.5659 1.418,0 2.56729,1.14928 2.56729,2.5659 0,0.36656 -0.0772,0.71382 -0.21498,1.0294 l -0.0124,0.0275 -0.004,0.008 c -2.01469,4.48551 -2.40881,4.42488 -0.27285,7.71149 z m 6.62423,-0.78961 c 0.86403,0.41341 1.4621,1.29535 1.4621,2.317861 0,1.418 -1.14929,2.5659 -2.56729,2.5659 -1.418,0 -2.56728,-1.1479 -2.56728,-2.5659 0,-0.14194 0.0124,-0.28112 0.0345,-0.41755 0.2825,-1.870001 -0.41065,-1.722541 -1.78456,-2.368841 h 0.001 c -0.90124,-0.39826 -1.52824,-1.2995 -1.52824,-2.34681 0,-1.418 1.14928,-2.56728 2.56591,-2.56728 1.418,0 2.56728,1.14928 2.56728,2.56728 0,0.0799 -0.004,0.15848 -0.011,0.23703 -0.20808,2.64859 0.55397,1.87689 1.82728,2.57831 z m -16.01418,-0.24943 c 0.0289,0 0.0593,10e-4 0.0882,10e-4 0.49747,-0.10197 0.84336,-0.39412 0.73036,-1.83003 l 0.001,0.001 c -0.0703,-0.23427 -0.10886,-0.48231 -0.10886,-0.73863 0,-1.418 1.14928,-2.56728 2.56728,-2.56728 1.41663,0 2.56591,1.14928 2.56591,2.56728 0,1.06247 -0.6463,1.97611 -1.56821,2.36472 -1.3739,0.6463 -2.02847,0.46853 -1.74459,2.338531 v 0.001 c 0.0234,0.13918 0.0358,0.28249 0.0358,0.42856 0,1.41801 -1.14928,2.56591 -2.56728,2.56591 -1.41801,-2e-5 -2.56592,-1.14792 -2.56592,-2.56593 0,-1.417997 1.14791,-2.567277 2.56591,-2.567277"
       style="fill:#abcf2b;fill-opacity:1;fill-rule:evenodd;stroke:none;stroke-width:0.35277775" />
  </g>
</svg>
